<?xml version="1.0" encoding="UTF-8" standalone="no"?>

<svg
   width="200mm"
   height="200mm"
   viewBox="0 0 200 200"
   version="1.1"
   id="svg5"
   xmlns="http://www.w3.org/2000/svg"
   xmlns:svg="http://www.w3.org/2000/svg">
  <defs
     id="defs2" />
  <g
     id="layer1">
    <path
       id="rect865-6"
       style="opacity:1;fill:#6480e4;fill-opacity:0;stroke:#2f2f2f;stroke-width:14.831;stroke-linecap:round;stroke-linejoin:round;stroke-miterlimit:3.5;stroke-dasharray:none;stroke-opacity:1;paint-order:markers stroke fill"
       d="m 179.04002,23.155791 c -0.20865,-0.0017 -0.41757,0.0016 -0.62641,0.01058 -2.85088,0.12292 -5.69899,1.251113 -7.9798,3.39283 l -14.00334,13.149848 c -0.38742,-1.09532 -1.00112,-2.126936 -1.84555,-3.026217 -1.80038,-1.91729 -4.26824,-2.828428 -6.73274,-2.722153 -2.10266,0.09067 -4.20281,0.921216 -5.885,2.500839 l -16.3512,15.35432 c -0.62246,-0.785515 -1.28944,-1.576115 -1.98702,-2.318973 -1.77697,-1.892344 -4.21273,-2.792401 -6.64515,-2.687498 -2.0753,0.08956 -4.14773,0.909985 -5.80802,2.469064 L 56.082222,101.01274 H 21.36685 c -5.67074,0 -10.236216,4.32052 -10.236216,9.68677 v 61.60205 c 0,5.36625 4.565476,9.68582 10.236216,9.68582 h 61.824297 c 5.670739,0 10.23621,-4.31957 10.23621,-9.68582 v -27.38989 l 43.656503,-40.9949 1.45778,-1.36829 c 2.98298,-2.801087 3.19148,-7.391267 0.46764,-10.29199 -0.6089,-0.648444 -1.31285,-1.153472 -2.06975,-1.519374 l 47.40528,-44.513759 2.42,-2.27279 c 4.95407,-4.651931 5.30018,-12.274684 0.77653,-17.092112 -2.28851,-2.437068 -5.37155,-3.676105 -8.50132,-3.702664 z m -79.62754,4.331001 c -0.07766,-6.55e-4 -0.156046,0.0014 -0.233848,0.0048 -1.061131,0.04584 -2.120504,0.465256 -2.969456,1.262448 L 57.551549,65.053274 c -1.843961,1.731522 -1.972428,4.569126 -0.288666,6.362262 1.683782,1.793117 4.524093,1.842201 6.368046,0.110612 l 37.756041,-35.453389 0.90067,-0.845801 c 1.84399,-1.731513 1.97244,-4.569148 0.28866,-6.36227 -0.85181,-0.907112 -1.9989,-1.368032 -3.16382,-1.377919 z m 48.23956,93.466278 c -0.0602,-5e-4 -0.12062,3e-4 -0.18081,0.004 -0.82185,0.0355 -1.64319,0.36024 -2.30069,0.97764 l -29.93982,28.11446 c -1.42816,1.34108 -1.52829,3.53785 -0.22421,4.92663 1.3041,1.3888 3.50422,1.42756 4.93241,0.0866 l 29.24218,-27.4592 0.69762,-0.65433 c 1.4282,-1.34106 1.5283,-3.5388 0.22422,-4.92756 -0.65974,-0.70258 -1.54856,-1.05946 -2.45081,-1.06713 z" />
    <rect
       style="fill:#6480e4;fill-opacity:1;stroke:#cecece;stroke-width:16.6927;stroke-linecap:round;stroke-linejoin:round;stroke-miterlimit:3.5;stroke-opacity:0;paint-order:markers stroke fill"
       id="rect865"
       width="82.296257"
       height="80.974617"
       x="11.111514"
       y="101.04578"
       rx="10.235991"
       ry="9.6863537" />
    <path
       id="rect865-3"
       style="fill:#e3e3e3;fill-opacity:1;stroke:#3b3b3b;stroke-width:13.5663;stroke-linecap:round;stroke-linejoin:round;stroke-miterlimit:3.5;stroke-dasharray:none;stroke-opacity:1;paint-order:markers stroke fill"
       d="m 33.185711,116.45659 c -3.475426,0 -6.273435,2.64808 -6.273435,5.93688 v 37.75354 c 0,3.28878 2.798009,5.93687 6.273435,5.93687 h 37.889964 c 3.475443,0 6.273442,-2.64809 6.273442,-5.93687 v -37.75354 c 0,-3.2888 -2.797999,-5.93688 -6.273442,-5.93688 z" />
    <path
       id="rect5295-5"
       style="fill:#6480e4;fill-opacity:1;stroke:#cecece;stroke-width:46.694;stroke-linecap:round;stroke-linejoin:round;stroke-miterlimit:3.5;stroke-opacity:0;paint-order:markers stroke fill"
       d="m 66.557741,124.11436 c -4.954065,4.65196 -5.299956,12.27508 -0.776301,17.09251 4.523672,4.81747 12.153435,4.95124 17.1075,0.2994 l 101.43633,-95.250381 2.42019,-2.272626 c 4.95406,-4.651927 5.3,-12.275058 0.77634,-17.092486 -2.44104,-2.599539 -5.78649,-3.835344 -9.12795,-3.69125 -2.85086,0.122918 -5.69877,1.250223 -7.97956,3.39194 z"
       />
    <path
       id="rect5295-5-4"
       style="fill:#6480e4;fill-opacity:1;stroke:#cecece;stroke-width:33.991;stroke-linecap:round;stroke-linejoin:round;stroke-miterlimit:3.5;stroke-opacity:0;paint-order:markers stroke fill"
       d="m 35.55341,120.30353 c -3.606317,3.38642 -3.858111,8.93568 -0.565107,12.44253 3.293028,3.50689 9.230488,8.0735 12.725594,4.57251 l 73.568613,-73.692226 8.29363,-6.00894 c 0,0 -2.6737,-4.581061 -5.96671,-8.087917 -1.77697,-1.892345 -4.21227,-2.791951 -6.64471,-2.687064 -2.07528,0.08956 -4.14844,0.910108 -5.80873,2.469188 z"
       />
    <path
       id="rect5295-5-4-2"
       style="fill:#6480e4;fill-opacity:1;stroke:#cecece;stroke-width:13.461;stroke-linecap:round;stroke-linejoin:round;stroke-miterlimit:3.5;stroke-opacity:0;paint-order:markers stroke fill"
       d="m 115.21113,150.08038 c -1.42815,1.34108 -1.52787,3.5387 -0.22377,4.92746 1.30408,1.38881 3.50361,1.42737 4.9318,0.0864 l 29.24223,-27.45899 0.69771,-0.65516 c 1.42817,-1.34108 1.52791,-3.53868 0.22382,-4.92746 -0.70373,-0.74941 -1.66814,-1.10566 -2.63142,-1.06413 -0.82187,0.0355 -1.64288,0.36043 -2.30038,0.97784 z"
       />
    <path
       id="rect5295-7"
       style="fill:#e3e3e3;fill-opacity:1;stroke:#cecece;stroke-width:28.116;stroke-linecap:round;stroke-linejoin:round;stroke-miterlimit:3.5;stroke-opacity:0;paint-order:markers stroke fill"
       d="m 66.153057,150.83104 c -2.983001,2.80108 -3.191273,7.39121 -0.467435,10.29195 2.723842,2.90076 7.317981,2.98131 10.300974,0.18024 l 61.078134,-57.35333 1.45726,-1.36843 c 2.983,-2.801077 3.1913,-7.39119 0.46747,-10.291912 -1.46984,-1.565271 -3.48424,-2.309366 -5.49626,-2.222617 -1.71658,0.07394 -3.4314,0.752793 -4.80474,2.042406 z"
       />
    <path
       id="rect5295"
       style="fill:#e3e3e3;fill-opacity:1;stroke:#cecece;stroke-width:34.4392;stroke-linecap:round;stroke-linejoin:round;stroke-miterlimit:3.5;stroke-opacity:0;paint-order:markers stroke fill"
       d="m 65.348387,108.42255 c -3.653859,3.43106 -3.908973,9.0535 -0.572547,12.60657 3.336417,3.55313 8.963767,3.65178 12.617632,0.22082 l 74.814298,-70.251833 1.78502,-1.67618 c 3.65387,-3.431022 3.90899,-9.05345 0.57257,-12.606542 -1.80038,-1.917287 -4.26781,-2.828755 -6.7323,-2.72248 -2.10265,0.09066 -4.20314,0.922103 -5.88534,2.501724 z"
       />
    <path
       id="rect5295-8"
       style="fill:#e3e3e3;fill-opacity:1;stroke:#cecece;stroke-width:34.4392;stroke-linecap:round;stroke-linejoin:round;stroke-miterlimit:3.5;stroke-opacity:0;paint-order:markers stroke fill"
       d="m 33.810257,138.06344 c -3.653863,3.43106 -3.90898,9.05349 -0.572555,12.60657 3.336423,3.55312 8.963759,3.65177 12.617622,0.22081 l 74.814316,-70.251819 1.78502,-1.676187 c 3.65386,-3.431017 3.90897,-9.053457 0.57258,-12.606545 -1.80038,-1.917279 -4.26782,-2.828761 -6.7323,-2.722476 -2.10268,0.09067 -4.20316,0.922095 -5.88534,2.501713 z"
       />
    <path
       id="rect5295-8-3"
       style="fill:#e3e3e3;fill-opacity:1;stroke:#cecece;stroke-width:17.3801;stroke-linecap:round;stroke-linejoin:round;stroke-miterlimit:3.5;stroke-opacity:0;paint-order:markers stroke fill"
       d="m 57.532418,65.085805 c -1.843965,1.731501 -1.972724,4.56894 -0.288962,6.362076 1.683782,1.793116 4.523688,1.842888 6.367638,0.11135 l 37.756036,-35.453521 0.90082,-0.845892 c 1.84399,-1.731512 1.97275,-4.568944 0.28896,-6.362066 -0.90858,-0.967582 -2.15382,-1.427561 -3.397552,-1.37393 -1.061137,0.04584 -2.121164,0.465342 -2.970115,1.262534 z"
       />
  </g>
</svg>
